<svg width="640" height="200" viewBox="0 0 640 200" fill="none" xmlns="http://www.w3.org/2000/svg" role="img" aria-labelledby="logoTitle logoDesc">
  <title id="logoTitle">TANMAK Logo</title>
  <desc id="logoDesc">A bullet-hell themed logo with orbiting bullets around a player core.</desc>
  <defs>
    <linearGradient id="panelGrad" x1="24" y1="16" x2="180" y2="180" gradientUnits="userSpaceOnUse">
      <stop stop-color="#0A1E35"/>
      <stop offset="1" stop-color="#09172A"/>
    </linearGradient>
    <linearGradient id="ringGrad" x1="46" y1="46" x2="154" y2="154" gradientUnits="userSpaceOnUse">
      <stop stop-color="#00D1B2"/>
      <stop offset="1" stop-color="#00A5FF"/>
    </linearGradient>
    <linearGradient id="coreGrad" x1="84" y1="64" x2="116" y2="128" gradientUnits="userSpaceOnUse">
      <stop stop-color="#E8F0FF"/>
      <stop offset="1" stop-color="#B5CFF8"/>
    </linearGradient>
  </defs>

  <rect x="16" y="16" width="168" height="168" rx="36" fill="url(#panelGrad)" stroke="#1E385A" stroke-width="2"/>

  <circle cx="100" cy="100" r="54" stroke="url(#ringGrad)" stroke-width="5" stroke-dasharray="10 10"/>
  <circle cx="100" cy="100" r="8" fill="#00D1B2"/>
  <path d="M100 68L114 106H86L100 68Z" fill="url(#coreGrad)"/>

  <circle cx="100" cy="46" r="6" fill="#00A5FF"/>
  <circle cx="146" cy="100" r="6" fill="#FF5F6D"/>
  <circle cx="120" cy="142" r="6" fill="#00D1B2"/>
  <circle cx="68" cy="140" r="5" fill="#99E9FF"/>
  <circle cx="54" cy="88" r="5" fill="#C2D8FF"/>

  <path d="M218 122L242 74L266 122H250L242 106L234 122H218Z" fill="#C2D8FF" opacity="0.9"/>
  <text x="286" y="108" fill="#E8F0FF" font-family="Space Grotesk, Noto Sans KR, Segoe UI, sans-serif" font-size="72" font-weight="700" letter-spacing="4">TANMAK</text>
  <text x="287" y="138" fill="#9ED9FF" font-family="Space Grotesk, Noto Sans KR, Segoe UI, sans-serif" font-size="16" font-weight="600" letter-spacing="2">INFINITE BULLET SURVIVAL</text>
</svg>
